<svg width="333" height="250" viewBox="0 0 333 250" fill="none" xmlns="http://www.w3.org/2000/svg">
<g filter="url(#filter0_d)">
<path d="M16.048 47.576C12.784 47.576 10.16 46.664 8.176 44.84C6.224 42.984 5.248 40.36 5.248 36.968H11.392C11.424 38.536 11.792 39.784 12.496 40.712C13.2 41.64 14.336 42.104 15.904 42.104C17.376 42.104 18.448 41.672 19.12 40.808C19.792 39.912 20.128 38.744 20.128 37.304V13.4H26.272V37.304C26.272 40.6 25.344 43.144 23.488 44.936C21.664 46.696 19.184 47.576 16.048 47.576ZM32.8109 47V13.4H44.2829C48.2189 13.4 51.4509 14.104 53.9789 15.512C56.5389 16.888 58.4269 18.84 59.6429 21.368C60.8909 23.864 61.5149 26.808 61.5149 30.2C61.5149 33.592 60.8909 36.552 59.6429 39.08C58.4269 41.576 56.5389 43.528 53.9789 44.936C51.4509 46.312 48.2189 47 44.2829 47H32.8109ZM38.9549 41.72H43.9949C46.8109 41.72 49.0349 41.272 50.6669 40.376C52.2989 39.448 53.4669 38.136 54.1709 36.44C54.8749 34.712 55.2269 32.632 55.2269 30.2C55.2269 27.8 54.8749 25.736 54.1709 24.008C53.4669 22.28 52.2989 20.952 50.6669 20.024C49.0349 19.096 46.8109 18.632 43.9949 18.632H38.9549V41.72ZM78.3734 47V13.4H90.7094C93.3974 13.4 95.6054 13.864 97.3334 14.792C99.0934 15.688 100.405 16.92 101.269 18.488C102.133 20.024 102.565 21.736 102.565 23.624C102.565 25.672 102.021 27.544 100.933 29.24C99.8774 30.936 98.2134 32.168 95.9414 32.936L102.901 47H95.8454L89.6054 33.752H84.5174V47H78.3734ZM84.5174 29.24H90.3254C92.3734 29.24 93.8774 28.744 94.8374 27.752C95.7974 26.76 96.2774 25.448 96.2774 23.816C96.2774 22.216 95.7974 20.936 94.8374 19.976C93.9094 19.016 92.3894 18.536 90.2774 18.536H84.5174V29.24ZM108.28 47V13.4H130.216V18.344H114.424V27.56H128.776V32.36H114.424V42.056H130.216V47H108.28ZM136.03 47V13.4H157.726V18.344H142.174V27.752H154.75V32.6H142.174V47H136.03ZM162.467 47V13.4H184.403V18.344H168.611V27.56H182.963V32.36H168.611V42.056H184.403V47H162.467ZM190.217 47V13.4H196.361V47H190.217ZM218.089 47.576C214.697 47.576 211.785 46.856 209.353 45.416C206.921 43.944 205.049 41.912 203.737 39.32C202.425 36.696 201.769 33.672 201.769 30.248C201.769 26.824 202.425 23.8 203.737 21.176C205.049 18.552 206.921 16.504 209.353 15.032C211.785 13.56 214.697 12.824 218.089 12.824C222.121 12.824 225.417 13.832 227.977 15.848C230.569 17.832 232.185 20.632 232.825 24.248H226.057C225.641 22.424 224.745 21 223.369 19.976C222.025 18.92 220.233 18.392 217.993 18.392C214.889 18.392 212.457 19.448 210.697 21.56C208.937 23.672 208.057 26.568 208.057 30.248C208.057 33.928 208.937 36.824 210.697 38.936C212.457 41.016 214.889 42.056 217.993 42.056C220.233 42.056 222.025 41.576 223.369 40.616C224.745 39.624 225.641 38.264 226.057 36.536H232.825C232.185 39.992 230.569 42.696 227.977 44.648C225.417 46.6 222.121 47.576 218.089 47.576ZM214.057 59.72V56.168H219.433C221.129 56.168 221.977 55.592 221.977 54.44C221.977 53.32 221.129 52.76 219.433 52.76H216.505V46.76H220.345V49.496C221.433 49.464 222.441 49.624 223.369 49.976C224.329 50.328 225.097 50.872 225.673 51.608C226.281 52.376 226.585 53.352 226.585 54.536C226.585 56.264 225.961 57.56 224.713 58.424C223.465 59.288 222.009 59.72 220.345 59.72H214.057ZM254.008 47.576C250.648 47.576 247.704 46.84 245.176 45.368C242.68 43.896 240.712 41.864 239.272 39.272C237.864 36.648 237.16 33.624 237.16 30.2C237.16 26.776 237.864 23.768 239.272 21.176C240.712 18.552 242.68 16.504 245.176 15.032C247.704 13.56 250.648 12.824 254.008 12.824C257.336 12.824 260.264 13.56 262.792 15.032C265.32 16.504 267.288 18.552 268.696 21.176C270.104 23.768 270.808 26.776 270.808 30.2C270.808 33.624 270.104 36.648 268.696 39.272C267.288 41.864 265.32 43.896 262.792 45.368C260.264 46.84 257.336 47.576 254.008 47.576ZM254.008 42.056C257.208 42.056 259.752 41 261.64 38.888C263.56 36.776 264.52 33.88 264.52 30.2C264.52 26.52 263.56 23.624 261.64 21.512C259.752 19.4 257.208 18.344 254.008 18.344C250.808 18.344 248.248 19.4 246.328 21.512C244.408 23.624 243.448 26.52 243.448 30.2C243.448 33.88 244.408 36.776 246.328 38.888C248.248 41 250.808 42.056 254.008 42.056ZM257.032 10.904C256.136 10.904 255.368 10.728 254.728 10.376C254.088 9.992 253.496 9.624 252.952 9.272C252.408 8.888 251.8 8.696 251.128 8.696C249.976 8.696 249.288 9.416 249.064 10.856H245.8C246.12 8.808 246.76 7.304 247.72 6.344C248.712 5.384 249.944 4.904 251.416 4.904C252.312 4.904 253.08 5.096 253.72 5.48C254.36 5.832 254.952 6.2 255.496 6.584C256.04 6.936 256.648 7.112 257.32 7.112C257.864 7.112 258.312 6.936 258.664 6.584C259.048 6.232 259.288 5.688 259.384 4.952H262.648C262.36 7 261.704 8.504 260.68 9.464C259.688 10.424 258.472 10.904 257.032 10.904ZM276.233 47V13.4H298.169V18.344H282.377V27.56H296.729V32.36H282.377V42.056H298.169V47H276.233ZM315.455 47.576C312.991 47.576 310.815 47.16 308.927 46.328C307.039 45.464 305.551 44.248 304.463 42.68C303.375 41.08 302.815 39.144 302.783 36.872H309.263C309.327 38.44 309.887 39.768 310.943 40.856C312.031 41.912 313.519 42.44 315.407 42.44C317.039 42.44 318.335 42.056 319.295 41.288C320.255 40.488 320.735 39.432 320.735 38.12C320.735 36.744 320.303 35.672 319.439 34.904C318.607 34.136 317.487 33.512 316.079 33.032C314.671 32.552 313.167 32.04 311.567 31.496C308.975 30.6 306.991 29.448 305.615 28.04C304.271 26.632 303.599 24.76 303.599 22.424C303.567 20.44 304.031 18.744 304.991 17.336C305.983 15.896 307.327 14.792 309.023 14.024C310.719 13.224 312.671 12.824 314.879 12.824C317.119 12.824 319.087 13.224 320.783 14.024C322.511 14.824 323.855 15.944 324.815 17.384C325.807 18.824 326.335 20.536 326.399 22.52H319.823C319.791 21.336 319.327 20.296 318.431 19.4C317.567 18.472 316.351 18.008 314.783 18.008C313.439 17.976 312.303 18.312 311.375 19.016C310.479 19.688 310.031 20.68 310.031 21.992C310.031 23.112 310.383 24.008 311.087 24.68C311.791 25.32 312.751 25.864 313.967 26.312C315.183 26.76 316.575 27.24 318.143 27.752C319.807 28.328 321.327 29 322.703 29.768C324.079 30.536 325.183 31.56 326.015 32.84C326.847 34.088 327.263 35.704 327.263 37.688C327.263 39.448 326.815 41.08 325.919 42.584C325.023 44.088 323.695 45.304 321.935 46.232C320.175 47.128 318.015 47.576 315.455 47.576Z" fill="white"/>
<path d="M8.176 44.84L7.48694 45.5647L7.49302 45.5705L7.4992 45.5762L8.176 44.84ZM5.248 36.968V35.968H4.248V36.968H5.248ZM11.392 36.968L12.3918 36.9476L12.3718 35.968H11.392V36.968ZM12.496 40.712L11.6993 41.3164L12.496 40.712ZM19.12 40.808L19.9094 41.4219L19.9147 41.415L19.92 41.408L19.12 40.808ZM20.128 13.4V12.4H19.128V13.4H20.128ZM26.272 13.4H27.272V12.4H26.272V13.4ZM23.488 44.936L24.1824 45.6556L24.1826 45.6554L23.488 44.936ZM16.048 46.576C12.9789 46.576 10.6149 45.7239 8.8528 44.1038L7.4992 45.5762C9.70507 47.6041 12.5891 48.576 16.048 48.576V46.576ZM8.86506 44.1153C7.16035 42.4944 6.248 40.1615 6.248 36.968H4.248C4.248 40.5585 5.28765 43.4736 7.48694 45.5647L8.86506 44.1153ZM5.248 37.968H11.392V35.968H5.248V37.968ZM10.3922 36.9884C10.427 38.6955 10.83 40.1705 11.6993 41.3164L13.2927 40.1076C12.754 39.3975 12.421 38.3765 12.3918 36.9476L10.3922 36.9884ZM11.6993 41.3164C12.6533 42.5739 14.14 43.104 15.904 43.104V41.104C14.532 41.104 13.7467 40.7061 13.2927 40.1076L11.6993 41.3164ZM15.904 43.104C17.5703 43.104 18.9873 42.6074 19.9094 41.4219L18.3306 40.1941C17.9087 40.7366 17.1817 41.104 15.904 41.104V43.104ZM19.92 41.408C20.7547 40.295 21.128 38.8982 21.128 37.304H19.128C19.128 38.5898 18.8293 39.529 18.32 40.208L19.92 41.408ZM21.128 37.304V13.4H19.128V37.304H21.128ZM20.128 14.4H26.272V12.4H20.128V14.4ZM25.272 13.4V37.304H27.272V13.4H25.272ZM25.272 37.304C25.272 40.4081 24.4037 42.6619 22.7934 44.2166L24.1826 45.6554C26.2843 43.6261 27.272 40.7919 27.272 37.304H25.272ZM22.7936 44.2164C21.198 45.7561 18.9897 46.576 16.048 46.576V48.576C19.3783 48.576 22.13 47.6359 24.1824 45.6556L22.7936 44.2164ZM32.8109 47H31.8109V48H32.8109V47ZM32.8109 13.4V12.4H31.8109V13.4H32.8109ZM53.9789 15.512L53.4923 16.3856L53.4988 16.3893L53.5054 16.3928L53.9789 15.512ZM59.6429 21.368L58.7417 21.8015L58.745 21.8084L58.7484 21.8152L59.6429 21.368ZM59.6429 39.08L58.7462 38.6373L58.7439 38.642L59.6429 39.08ZM53.9789 44.936L54.457 45.8143L54.4608 45.8122L53.9789 44.936ZM38.9549 41.72H37.9549V42.72H38.9549V41.72ZM50.6669 40.376L51.1481 41.2526L51.1547 41.249L51.1612 41.2453L50.6669 40.376ZM54.1709 36.44L55.0945 36.8234L55.097 36.8173L54.1709 36.44ZM54.1709 24.008L53.2448 24.3853L54.1709 24.008ZM38.9549 18.632V17.632H37.9549V18.632H38.9549ZM33.8109 47V13.4H31.8109V47H33.8109ZM32.8109 14.4H44.2829V12.4H32.8109V14.4ZM44.2829 14.4C48.1073 14.4 51.1571 15.085 53.4923 16.3856L54.4655 14.6384C51.7446 13.123 48.3305 12.4 44.2829 12.4V14.4ZM53.5054 16.3928C55.8863 17.6725 57.6209 19.4713 58.7417 21.8015L60.544 20.9345C59.2329 18.2087 57.1914 16.1034 54.4523 14.6312L53.5054 16.3928ZM58.7484 21.8152C59.9136 24.1456 60.5149 26.9303 60.5149 30.2H62.5149C62.5149 26.6857 61.8681 23.5824 60.5373 20.9208L58.7484 21.8152ZM60.5149 30.2C60.5149 33.4693 59.9138 36.2722 58.7462 38.6373L60.5396 39.5227C61.868 36.8318 62.5149 33.7147 62.5149 30.2H60.5149ZM58.7439 38.642C57.6232 40.9423 55.8861 42.7458 53.497 44.0598L54.4608 45.8122C57.1917 44.3102 59.2305 42.2097 60.5419 39.518L58.7439 38.642ZM53.5008 44.0577C51.1635 45.3299 48.1104 46 44.2829 46V48C48.3274 48 51.7382 47.2941 54.4569 45.8143L53.5008 44.0577ZM44.2829 46H32.8109V48H44.2829V46ZM38.9549 42.72H43.9949V40.72H38.9549V42.72ZM43.9949 42.72C46.8999 42.72 49.312 42.2606 51.1481 41.2526L50.1856 39.4994C48.7577 40.2834 46.7219 40.72 43.9949 40.72V42.72ZM51.1612 41.2453C52.9816 40.2101 54.3033 38.7294 55.0945 36.8234L53.2473 36.0566C52.6305 37.5426 51.6162 38.6859 50.1726 39.5067L51.1612 41.2453ZM55.097 36.8173C55.8621 34.9392 56.2269 32.724 56.2269 30.2H54.2269C54.2269 32.54 53.8876 34.4848 53.2448 36.0627L55.097 36.8173ZM56.2269 30.2C56.2269 27.706 55.8616 25.5074 55.097 23.6307L53.2448 24.3853C53.8882 25.9646 54.2269 27.894 54.2269 30.2H56.2269ZM55.097 23.6307C54.3077 21.6935 52.9869 20.1929 51.1612 19.1547L50.1726 20.8933C51.6108 21.7111 52.626 22.8665 53.2448 24.3853L55.097 23.6307ZM51.1612 19.1547C49.3215 18.1086 46.9041 17.632 43.9949 17.632V19.632C46.7177 19.632 48.7482 20.0834 50.1726 20.8933L51.1612 19.1547ZM43.9949 17.632H38.9549V19.632H43.9949V17.632ZM37.9549 18.632V41.72H39.9549V18.632H37.9549ZM78.3734 47H77.3734V48H78.3734V47ZM78.3734 13.4V12.4H77.3734V13.4H78.3734ZM97.3334 14.792L96.8603 15.673L96.8699 15.6782L96.8797 15.6832L97.3334 14.792ZM101.269 18.488L100.394 18.9706L100.398 18.9783L101.269 18.488ZM100.933 29.24L100.092 28.7L100.084 28.7114L100.933 29.24ZM95.9414 32.936L95.6211 31.9887L94.538 32.3548L95.0451 33.3795L95.9414 32.936ZM102.901 47V48H104.512L103.798 46.5565L102.901 47ZM95.8454 47L94.9407 47.4261L95.211 48H95.8454V47ZM89.6054 33.752L90.51 33.3259L90.2397 32.752H89.6054V33.752ZM84.5174 33.752V32.752H83.5174V33.752H84.5174ZM84.5174 47V48H85.5174V47H84.5174ZM84.5174 29.24H83.5174V30.24H84.5174V29.24ZM94.8374 27.752L94.1188 27.0566L94.8374 27.752ZM94.8374 19.976L94.1184 20.671L94.1243 20.6771L94.1303 20.6831L94.8374 19.976ZM84.5174 18.536V17.536H83.5174V18.536H84.5174ZM79.3734 47V13.4H77.3734V47H79.3734ZM78.3734 14.4H90.7094V12.4H78.3734V14.4ZM90.7094 14.4C93.2905 14.4 95.3216 14.8467 96.8603 15.673L97.8065 13.911C95.8892 12.8813 93.5043 12.4 90.7094 12.4V14.4ZM96.8797 15.6832C98.4804 16.4981 99.6361 17.5959 100.394 18.9706L102.145 18.0054C101.175 16.2441 99.7063 14.8779 97.7871 13.9008L96.8797 15.6832ZM100.398 18.9783C101.172 20.3539 101.565 21.8951 101.565 23.624H103.565C103.565 21.5769 103.095 19.6941 102.141 17.9977L100.398 18.9783ZM101.565 23.624C101.565 25.4839 101.075 27.1679 100.092 28.7L101.775 29.78C102.968 27.9201 103.565 25.8601 103.565 23.624H101.565ZM100.084 28.7114C99.1742 30.1734 97.7195 31.2794 95.6211 31.9887L96.2616 33.8833C98.7073 33.0566 100.581 31.6986 101.782 29.7686L100.084 28.7114ZM95.0451 33.3795L102.005 47.4435L103.798 46.5565L96.8376 32.4925L95.0451 33.3795ZM102.901 46H95.8454V48H102.901V46ZM96.75 46.5739L90.51 33.3259L88.7007 34.1781L94.9407 47.4261L96.75 46.5739ZM89.6054 32.752H84.5174V34.752H89.6054V32.752ZM83.5174 33.752V47H85.5174V33.752H83.5174ZM84.5174 46H78.3734V48H84.5174V46ZM84.5174 30.24H90.3254V28.24H84.5174V30.24ZM90.3254 30.24C92.5136 30.24 94.3328 29.7114 95.556 28.4474L94.1188 27.0566C93.4219 27.7766 92.2332 28.24 90.3254 28.24V30.24ZM95.556 28.4474C96.7288 27.2355 97.2774 25.6569 97.2774 23.816H95.2774C95.2774 25.2391 94.8659 26.2845 94.1188 27.0566L95.556 28.4474ZM97.2774 23.816C97.2774 22.0017 96.7252 20.4496 95.5445 19.2689L94.1303 20.6831C94.8695 21.4224 95.2774 22.4303 95.2774 23.816H97.2774ZM95.5564 19.281C94.3549 18.0381 92.5072 17.536 90.2774 17.536V19.536C92.2716 19.536 93.4638 19.9939 94.1184 20.671L95.5564 19.281ZM90.2774 17.536H84.5174V19.536H90.2774V17.536ZM83.5174 18.536V29.24H85.5174V18.536H83.5174ZM108.28 47H107.28V48H108.28V47ZM108.28 13.4V12.4H107.28V13.4H108.28ZM130.216 13.4H131.216V12.4H130.216V13.4ZM130.216 18.344V19.344H131.216V18.344H130.216ZM114.424 18.344V17.344H113.424V18.344H114.424ZM114.424 27.56H113.424V28.56H114.424V27.56ZM128.776 27.56H129.776V26.56H128.776V27.56ZM128.776 32.36V33.36H129.776V32.36H128.776ZM114.424 32.36V31.36H113.424V32.36H114.424ZM114.424 42.056H113.424V43.056H114.424V42.056ZM130.216 42.056H131.216V41.056H130.216V42.056ZM130.216 47V48H131.216V47H130.216ZM109.28 47V13.4H107.28V47H109.28ZM108.28 14.4H130.216V12.4H108.28V14.4ZM129.216 13.4V18.344H131.216V13.4H129.216ZM130.216 17.344H114.424V19.344H130.216V17.344ZM113.424 18.344V27.56H115.424V18.344H113.424ZM114.424 28.56H128.776V26.56H114.424V28.56ZM127.776 27.56V32.36H129.776V27.56H127.776ZM128.776 31.36H114.424V33.36H128.776V31.36ZM113.424 32.36V42.056H115.424V32.36H113.424ZM114.424 43.056H130.216V41.056H114.424V43.056ZM129.216 42.056V47H131.216V42.056H129.216ZM130.216 46H108.28V48H130.216V46ZM136.03 47H135.03V48H136.03V47ZM136.03 13.4V12.4H135.03V13.4H136.03ZM157.726 13.4H158.726V12.4H157.726V13.4ZM157.726 18.344V19.344H158.726V18.344H157.726ZM142.174 18.344V17.344H141.174V18.344H142.174ZM142.174 27.752H141.174V28.752H142.174V27.752ZM154.75 27.752H155.75V26.752H154.75V27.752ZM154.75 32.6V33.6H155.75V32.6H154.75ZM142.174 32.6V31.6H141.174V32.6H142.174ZM142.174 47V48H143.174V47H142.174ZM137.03 47V13.4H135.03V47H137.03ZM136.03 14.4H157.726V12.4H136.03V14.4ZM156.726 13.4V18.344H158.726V13.4H156.726ZM157.726 17.344H142.174V19.344H157.726V17.344ZM141.174 18.344V27.752H143.174V18.344H141.174ZM142.174 28.752H154.75V26.752H142.174V28.752ZM153.75 27.752V32.6H155.75V27.752H153.75ZM154.75 31.6H142.174V33.6H154.75V31.6ZM141.174 32.6V47H143.174V32.6H141.174ZM142.174 46H136.03V48H142.174V46ZM162.467 47H161.467V48H162.467V47ZM162.467 13.4V12.4H161.467V13.4H162.467ZM184.403 13.4H185.403V12.4H184.403V13.4ZM184.403 18.344V19.344H185.403V18.344H184.403ZM168.611 18.344V17.344H167.611V18.344H168.611ZM168.611 27.56H167.611V28.56H168.611V27.56ZM182.963 27.56H183.963V26.56H182.963V27.56ZM182.963 32.36V33.36H183.963V32.36H182.963ZM168.611 32.36V31.36H167.611V32.36H168.611ZM168.611 42.056H167.611V43.056H168.611V42.056ZM184.403 42.056H185.403V41.056H184.403V42.056ZM184.403 47V48H185.403V47H184.403ZM163.467 47V13.4H161.467V47H163.467ZM162.467 14.4H184.403V12.4H162.467V14.4ZM183.403 13.4V18.344H185.403V13.4H183.403ZM184.403 17.344H168.611V19.344H184.403V17.344ZM167.611 18.344V27.56H169.611V18.344H167.611ZM168.611 28.56H182.963V26.56H168.611V28.56ZM181.963 27.56V32.36H183.963V27.56H181.963ZM182.963 31.36H168.611V33.36H182.963V31.36ZM167.611 32.36V42.056H169.611V32.36H167.611ZM168.611 43.056H184.403V41.056H168.611V43.056ZM183.403 42.056V47H185.403V42.056H183.403ZM184.403 46H162.467V48H184.403V46ZM190.217 47H189.217V48H190.217V47ZM190.217 13.4V12.4H189.217V13.4H190.217ZM196.361 13.4H197.361V12.4H196.361V13.4ZM196.361 47V48H197.361V47H196.361ZM191.217 47V13.4H189.217V47H191.217ZM190.217 14.4H196.361V12.4H190.217V14.4ZM195.361 13.4V47H197.361V13.4H195.361ZM196.361 46H190.217V48H196.361V46ZM209.353 45.416L208.836 46.2715L208.844 46.2765L209.353 45.416ZM203.737 39.32L202.843 39.7672L202.845 39.7716L203.737 39.32ZM203.737 21.176L202.843 20.7288L203.737 21.176ZM227.977 15.848L227.359 16.6337L227.37 16.6421L227.977 15.848ZM232.825 24.248V25.248H234.018L233.81 24.0737L232.825 24.248ZM226.057 24.248L225.082 24.4704L225.26 25.248H226.057V24.248ZM223.369 19.976L222.752 20.7623L222.762 20.7704L222.772 20.7782L223.369 19.976ZM210.697 21.56L209.929 20.9198V20.9198L210.697 21.56ZM210.697 38.936L209.929 39.5762L209.934 39.5819L210.697 38.936ZM223.369 40.616L223.951 41.4297L223.954 41.4272L223.369 40.616ZM226.057 36.536V35.536H225.27L225.085 36.3019L226.057 36.536ZM232.825 36.536L233.809 36.7181L234.028 35.536H232.825V36.536ZM227.977 44.648L227.376 43.8492L227.371 43.8528L227.977 44.648ZM214.057 59.72H213.057V60.72H214.057V59.72ZM214.057 56.168V55.168H213.057V56.168H214.057ZM216.505 52.76H215.505V53.76H216.505V52.76ZM216.505 46.76V45.76H215.505V46.76H216.505ZM220.345 46.76H221.345V45.76H220.345V46.76ZM220.345 49.496H219.345V50.5258L220.375 50.4956L220.345 49.496ZM223.369 49.976L223.015 50.9111L223.025 50.9149L223.369 49.976ZM225.673 51.608L224.886 52.2243L224.889 52.2287L225.673 51.608ZM224.713 58.424L224.144 57.6018L224.713 58.424ZM218.089 46.576C214.841 46.576 212.112 45.8874 209.863 44.5555L208.844 46.2765C211.458 47.8246 214.554 48.576 218.089 48.576V46.576ZM209.871 44.5605C207.603 43.1876 205.859 41.2972 204.63 38.8684L202.845 39.7716C204.24 42.5268 206.24 44.7003 208.836 46.2715L209.871 44.5605ZM204.632 38.8728C203.4 36.4091 202.769 33.5427 202.769 30.248H200.769C200.769 33.8013 201.451 36.9829 202.843 39.7672L204.632 38.8728ZM202.769 30.248C202.769 26.9533 203.4 24.0869 204.632 21.6232L202.843 20.7288C201.451 23.5131 200.769 26.6947 200.769 30.248H202.769ZM204.632 21.6232C205.862 19.1624 207.606 17.2585 209.871 15.8875L208.836 14.1765C206.237 15.7495 204.237 17.9415 202.843 20.7288L204.632 21.6232ZM209.871 15.8875C212.119 14.5269 214.844 13.824 218.089 13.824V11.824C214.55 11.824 211.452 12.5931 208.836 14.1765L209.871 15.8875ZM218.089 13.824C221.952 13.824 225.014 14.7869 227.359 16.6336L228.596 15.0624C225.821 12.8771 222.291 11.824 218.089 11.824V13.824ZM227.37 16.6421C229.738 18.4546 231.238 21.0196 231.841 24.4223L233.81 24.0737C233.132 20.2444 231.401 17.2094 228.585 15.0539L227.37 16.6421ZM232.825 23.248H226.057V25.248H232.825V23.248ZM227.032 24.0256C226.569 21.9922 225.551 20.3532 223.966 19.1738L222.772 20.7782C223.94 21.6468 224.714 22.8558 225.082 24.4704L227.032 24.0256ZM223.987 19.1897C222.419 17.9575 220.388 17.392 217.993 17.392V19.392C220.079 19.392 221.632 19.8825 222.752 20.7623L223.987 19.1897ZM217.993 17.392C214.636 17.392 211.905 18.5487 209.929 20.9198L211.466 22.2002C213.01 20.3473 215.143 19.392 217.993 19.392V17.392ZM209.929 20.9198C207.975 23.2644 207.057 26.4137 207.057 30.248H209.057C209.057 26.7223 209.899 24.0796 211.466 22.2002L209.929 20.9198ZM207.057 30.248C207.057 34.0823 207.975 37.2316 209.929 39.5762L211.466 38.2958C209.899 36.4164 209.057 33.7737 209.057 30.248H207.057ZM209.934 39.5819C211.912 41.9192 214.641 43.056 217.993 43.056V41.056C215.138 41.056 213.003 40.1128 211.461 38.2901L209.934 39.5819ZM217.993 43.056C220.369 43.056 222.386 42.5473 223.951 41.4297L222.788 39.8023C221.665 40.6047 220.098 41.056 217.993 41.056V43.056ZM223.954 41.4272C225.534 40.2882 226.561 38.7185 227.03 36.7701L225.085 36.3019C224.722 37.8095 223.957 38.9598 222.785 39.8048L223.954 41.4272ZM226.057 37.536H232.825V35.536H226.057V37.536ZM231.842 36.3539C231.244 39.5861 229.75 42.0609 227.376 43.8492L228.579 45.4468C231.388 43.3311 233.127 40.3979 233.809 36.7181L231.842 36.3539ZM227.371 43.8528C225.025 45.6415 221.958 46.576 218.089 46.576V48.576C222.284 48.576 225.81 47.5585 228.584 45.4432L227.371 43.8528ZM215.057 59.72V56.168H213.057V59.72H215.057ZM214.057 57.168H219.433V55.168H214.057V57.168ZM219.433 57.168C220.363 57.168 221.237 57.0158 221.903 56.5632C222.639 56.0637 222.977 55.2994 222.977 54.44H220.977C220.977 54.7326 220.892 54.8323 220.779 54.9088C220.598 55.0322 220.199 55.168 219.433 55.168V57.168ZM222.977 54.44C222.977 53.5846 222.629 52.8319 221.892 52.3455C221.229 51.9072 220.36 51.76 219.433 51.76V53.76C220.203 53.76 220.606 53.8928 220.79 54.0145C220.902 54.0881 220.977 54.1754 220.977 54.44H222.977ZM219.433 51.76H216.505V53.76H219.433V51.76ZM217.505 52.76V46.76H215.505V52.76H217.505ZM216.505 47.76H220.345V45.76H216.505V47.76ZM219.345 46.76V49.496H221.345V46.76H219.345ZM220.375 50.4956C221.344 50.467 222.221 50.6098 223.015 50.911L223.724 49.041C222.662 48.6382 221.522 48.461 220.316 48.4964L220.375 50.4956ZM223.025 50.9149C223.827 51.209 224.435 51.6487 224.886 52.2243L226.461 50.9917C225.759 50.0953 224.832 49.447 223.714 49.0371L223.025 50.9149ZM224.889 52.2287C225.33 52.7854 225.585 53.5287 225.585 54.536H227.585C227.585 53.1753 227.233 51.9666 226.457 50.9873L224.889 52.2287ZM225.585 54.536C225.585 55.9885 225.082 56.9527 224.144 57.6018L225.283 59.2462C226.841 58.1673 227.585 56.5395 227.585 54.536H225.585ZM224.144 57.6018C223.079 58.3389 221.826 58.72 220.345 58.72V60.72C222.192 60.72 223.851 60.2371 225.283 59.2462L224.144 57.6018ZM220.345 58.72H214.057V60.72H220.345V58.72ZM245.176 45.368L244.668 46.2294L244.673 46.2322L245.176 45.368ZM239.272 39.272L238.391 39.7448L238.394 39.7513L238.398 39.7576L239.272 39.272ZM239.272 21.176L238.395 20.6949L238.393 20.6987L239.272 21.176ZM245.176 15.032L244.673 14.1678L244.668 14.1706L245.176 15.032ZM262.792 15.032L263.295 14.1678L262.792 15.032ZM268.696 21.176L267.815 21.6488L267.817 21.6533L268.696 21.176ZM268.696 39.272L269.575 39.7493L269.577 39.7448L268.696 39.272ZM262.792 45.368L263.295 46.2322L262.792 45.368ZM261.64 38.888L260.9 38.2153L260.894 38.2215L261.64 38.888ZM261.64 21.512L260.894 22.1785L260.9 22.1847L261.64 21.512ZM246.328 21.512L247.068 22.1847L246.328 21.512ZM246.328 38.888L247.068 38.2153L246.328 38.888ZM254.728 10.376L254.214 11.2335L254.23 11.2432L254.246 11.2522L254.728 10.376ZM252.952 9.272L252.375 10.089L252.392 10.1006L252.409 10.1116L252.952 9.272ZM249.064 10.856V11.856H249.92L250.052 11.0097L249.064 10.856ZM245.8 10.856L244.812 10.7016L244.632 11.856H245.8V10.856ZM247.72 6.344L247.025 5.62539L247.019 5.63109L247.013 5.63689L247.72 6.344ZM253.72 5.48L253.206 6.33749L253.222 6.34716L253.238 6.35621L253.72 5.48ZM255.496 6.584L254.919 7.40097L254.936 7.4126L254.953 7.42357L255.496 6.584ZM258.664 6.584L257.988 5.84684L257.972 5.86153L257.957 5.87689L258.664 6.584ZM259.384 4.952V3.952H258.506L258.392 4.82266L259.384 4.952ZM262.648 4.952L263.638 5.09125L263.798 3.952H262.648V4.952ZM260.68 9.464L259.996 8.73446L259.99 8.73988L259.985 8.74539L260.68 9.464ZM254.008 46.576C250.798 46.576 248.033 45.8743 245.679 44.5038L244.673 46.2322C247.375 47.8057 250.498 48.576 254.008 48.576V46.576ZM245.684 44.5066C243.345 43.1272 241.502 41.2266 240.146 38.7864L238.398 39.7576C239.922 42.5014 242.015 44.6648 244.668 46.2294L245.684 44.5066ZM240.153 38.7992C238.834 36.341 238.16 33.4839 238.16 30.2H236.16C236.16 33.7641 236.894 36.955 238.391 39.7448L240.153 38.7992ZM238.16 30.2C238.16 26.9158 238.834 24.0768 240.151 21.6533L238.393 20.6987C236.894 23.4592 236.16 26.6362 236.16 30.2H238.16ZM240.149 21.6571C241.505 19.1852 243.348 17.271 245.684 15.8934L244.668 14.1706C242.012 15.737 239.919 17.9187 238.395 20.6949L240.149 21.6571ZM245.679 15.8962C248.033 14.5257 250.798 13.824 254.008 13.824V11.824C250.498 11.824 247.375 12.5943 244.673 14.1678L245.679 15.8962ZM254.008 13.824C257.184 13.824 259.934 14.5248 262.289 15.8962L263.295 14.1678C260.594 12.5952 257.488 11.824 254.008 11.824V13.824ZM262.289 15.8962C264.654 17.2734 266.493 19.1846 267.815 21.6488L269.577 20.7032C268.083 17.9194 265.986 15.7346 263.295 14.1678L262.289 15.8962ZM267.817 21.6533C269.134 24.0768 269.808 26.9158 269.808 30.2H271.808C271.808 26.6362 271.074 23.4592 269.575 20.6987L267.817 21.6533ZM269.808 30.2C269.808 33.4839 269.134 36.341 267.815 38.7992L269.577 39.7448C271.074 36.955 271.808 33.7641 271.808 30.2H269.808ZM267.817 38.7947C266.496 41.2272 264.657 43.1248 262.289 44.5038L263.295 46.2322C265.983 44.6672 268.08 42.5008 269.575 39.7493L267.817 38.7947ZM262.289 44.5038C259.934 45.8752 257.184 46.576 254.008 46.576V48.576C257.488 48.576 260.594 47.8048 263.295 46.2322L262.289 44.5038ZM254.008 43.056C257.452 43.056 260.282 41.9074 262.386 39.5545L260.894 38.2215C259.222 40.0926 256.964 41.056 254.008 41.056V43.056ZM262.38 39.5607C264.511 37.2162 265.52 34.0546 265.52 30.2H263.52C263.52 33.7054 262.609 36.3358 260.9 38.2153L262.38 39.5607ZM265.52 30.2C265.52 26.3454 264.511 23.1838 262.38 20.8393L260.9 22.1847C262.609 24.0642 263.52 26.6946 263.52 30.2H265.52ZM262.386 20.8455C260.282 18.4926 257.452 17.344 254.008 17.344V19.344C256.964 19.344 259.222 20.3074 260.894 22.1785L262.386 20.8455ZM254.008 17.344C250.564 17.344 247.722 18.4924 245.588 20.8393L247.068 22.1847C248.774 20.3076 251.052 19.344 254.008 19.344V17.344ZM245.588 20.8393C243.457 23.1838 242.448 26.3454 242.448 30.2H244.448C244.448 26.6946 245.359 24.0642 247.068 22.1847L245.588 20.8393ZM242.448 30.2C242.448 34.0546 243.457 37.2162 245.588 39.5607L247.068 38.2153C245.359 36.3358 244.448 33.7054 244.448 30.2H242.448ZM245.588 39.5607C247.722 41.9076 250.564 43.056 254.008 43.056V41.056C251.052 41.056 248.774 40.0924 247.068 38.2153L245.588 39.5607ZM257.032 9.904C256.267 9.904 255.672 9.75412 255.21 9.49978L254.246 11.2522C255.064 11.7019 256.005 11.904 257.032 11.904V9.904ZM255.242 9.51851C254.611 9.13947 254.028 8.77746 253.495 8.43243L252.409 10.1116C252.964 10.4705 253.565 10.8445 254.214 11.2335L255.242 9.51851ZM253.529 8.45503C252.814 7.95077 252.004 7.696 251.128 7.696V9.696C251.596 9.696 252.002 9.82523 252.375 10.089L253.529 8.45503ZM251.128 7.696C250.326 7.696 249.588 7.9563 249.025 8.54514C248.488 9.10686 248.205 9.8694 248.076 10.7023L250.052 11.0097C250.147 10.4026 250.32 10.0851 250.471 9.92686C250.596 9.79569 250.778 9.696 251.128 9.696V7.696ZM249.064 9.856H245.8V11.856H249.064V9.856ZM246.788 11.0104C247.092 9.06796 247.677 7.80102 248.427 7.0511L247.013 5.63689C245.843 6.80698 245.148 8.54803 244.812 10.7016L246.788 11.0104ZM248.415 7.0626C249.208 6.29587 250.185 5.904 251.416 5.904V3.904C249.703 3.904 248.216 4.47213 247.025 5.62539L248.415 7.0626ZM251.416 5.904C252.167 5.904 252.749 6.06388 253.206 6.33749L254.234 4.6225C253.411 4.12812 252.457 3.904 251.416 3.904V5.904ZM253.238 6.35621C253.849 6.69195 254.409 7.04041 254.919 7.40097L256.073 5.76703C255.495 5.35958 254.871 4.97205 254.202 4.60378L253.238 6.35621ZM254.953 7.42357C255.665 7.88431 256.463 8.112 257.32 8.112V6.112C256.833 6.112 256.415 5.98768 256.039 5.74443L254.953 7.42357ZM257.32 8.112C258.102 8.112 258.813 7.84897 259.371 7.2911L257.957 5.87689C257.811 6.02303 257.626 6.112 257.32 6.112V8.112ZM259.34 7.32115C259.958 6.75428 260.262 5.95326 260.376 5.08134L258.392 4.82266C258.314 5.42273 258.138 5.70972 257.988 5.84684L259.34 7.32115ZM259.384 5.952H262.648V3.952H259.384V5.952ZM261.658 4.81274C261.387 6.73808 260.791 7.9894 259.996 8.73446L261.364 10.1935C262.617 9.0186 263.333 7.26192 263.638 5.09125L261.658 4.81274ZM259.985 8.74539C259.188 9.51645 258.225 9.904 257.032 9.904V11.904C258.719 11.904 260.188 11.3315 261.375 10.1826L259.985 8.74539ZM276.233 47H275.233V48H276.233V47ZM276.233 13.4V12.4H275.233V13.4H276.233ZM298.169 13.4H299.169V12.4H298.169V13.4ZM298.169 18.344V19.344H299.169V18.344H298.169ZM282.377 18.344V17.344H281.377V18.344H282.377ZM282.377 27.56H281.377V28.56H282.377V27.56ZM296.729 27.56H297.729V26.56H296.729V27.56ZM296.729 32.36V33.36H297.729V32.36H296.729ZM282.377 32.36V31.36H281.377V32.36H282.377ZM282.377 42.056H281.377V43.056H282.377V42.056ZM298.169 42.056H299.169V41.056H298.169V42.056ZM298.169 47V48H299.169V47H298.169ZM277.233 47V13.4H275.233V47H277.233ZM276.233 14.4H298.169V12.4H276.233V14.4ZM297.169 13.4V18.344H299.169V13.4H297.169ZM298.169 17.344H282.377V19.344H298.169V17.344ZM281.377 18.344V27.56H283.377V18.344H281.377ZM282.377 28.56H296.729V26.56H282.377V28.56ZM295.729 27.56V32.36H297.729V27.56H295.729ZM296.729 31.36H282.377V33.36H296.729V31.36ZM281.377 32.36V42.056H283.377V32.36H281.377ZM282.377 43.056H298.169V41.056H282.377V43.056ZM297.169 42.056V47H299.169V42.056H297.169ZM298.169 46H276.233V48H298.169V46ZM308.927 46.328L308.511 47.2374L308.523 47.2431L308.927 46.328ZM304.463 42.68L303.636 43.2423L303.641 43.2501L304.463 42.68ZM302.783 36.872V35.872H301.769L301.783 36.8861L302.783 36.872ZM309.263 36.872L310.262 36.8312L310.223 35.872H309.263V36.872ZM310.943 40.856L310.225 41.5525L310.236 41.5632L310.246 41.5736L310.943 40.856ZM319.295 41.288L319.919 42.0689L319.927 42.0626L319.935 42.0562L319.295 41.288ZM319.439 34.904L318.76 35.6388L318.767 35.6452L318.774 35.6514L319.439 34.904ZM316.079 33.032L315.756 33.9785L316.079 33.032ZM311.567 31.496L311.24 32.4411L311.245 32.4428L311.567 31.496ZM305.615 28.04L304.891 28.7305L304.9 28.7389L305.615 28.04ZM303.599 22.424H304.599V22.4159L304.599 22.4079L303.599 22.424ZM304.991 17.336L304.167 16.7687L304.165 16.7727L304.991 17.336ZM309.023 14.024L309.435 14.935L309.442 14.9317L309.449 14.9284L309.023 14.024ZM320.783 14.024L320.356 14.9285L320.363 14.9315L320.783 14.024ZM324.815 17.384L323.983 17.9387L323.987 17.945L323.991 17.9513L324.815 17.384ZM326.399 22.52V23.52H327.432L327.398 22.4878L326.399 22.52ZM319.823 22.52L318.823 22.547L318.849 23.52H319.823V22.52ZM318.431 19.4L317.699 20.0814L317.711 20.0945L317.724 20.1071L318.431 19.4ZM314.783 18.008L314.759 19.0077L314.771 19.008H314.783V18.008ZM311.375 19.016L311.975 19.816L311.979 19.8127L311.375 19.016ZM311.087 24.68L310.396 25.4034L310.405 25.4118L310.414 25.4199L311.087 24.68ZM313.967 26.312L314.312 25.3737L313.967 26.312ZM318.143 27.752L318.47 26.807L318.462 26.8041L318.453 26.8014L318.143 27.752ZM322.703 29.768L323.19 28.8948L322.703 29.768ZM326.015 32.84L325.176 33.385L325.183 33.3947L326.015 32.84ZM325.919 42.584L326.778 43.0958L325.919 42.584ZM321.935 46.232L322.388 47.1232L322.395 47.1199L322.401 47.1166L321.935 46.232ZM315.455 46.576C313.103 46.576 311.069 46.1791 309.33 45.4129L308.523 47.2431C310.561 48.1409 312.878 48.576 315.455 48.576V46.576ZM309.343 45.4187C307.603 44.6226 306.261 43.5177 305.284 42.1099L303.641 43.2501C304.84 44.9783 306.474 46.3054 308.511 47.2373L309.343 45.4187ZM305.29 42.1177C304.33 40.7061 303.812 38.969 303.783 36.8579L301.783 36.8861C301.817 39.319 302.42 41.4539 303.636 43.2423L305.29 42.1177ZM302.783 37.872H309.263V35.872H302.783V37.872ZM308.264 36.9128C308.337 38.7171 308.991 40.2813 310.225 41.5525L311.66 40.1595C310.782 39.2547 310.316 38.1629 310.262 36.8312L308.264 36.9128ZM310.246 41.5736C311.564 42.8526 313.326 43.44 315.407 43.44V41.44C313.712 41.44 312.497 40.9714 311.639 40.1384L310.246 41.5736ZM315.407 43.44C317.191 43.44 318.732 43.0192 319.919 42.0689L318.67 40.5071C317.938 41.0928 316.886 41.44 315.407 41.44V43.44ZM319.935 42.0562C321.136 41.0556 321.735 39.7118 321.735 38.12H319.735C319.735 39.1522 319.374 39.9204 318.655 40.5198L319.935 42.0562ZM321.735 38.12C321.735 36.5178 321.221 35.1506 320.103 34.1566L318.774 35.6514C319.384 36.1934 319.735 36.9702 319.735 38.12H321.735ZM320.117 34.1692C319.156 33.2819 317.902 32.597 316.401 32.0855L315.756 33.9785C317.072 34.427 318.058 34.9901 318.76 35.6388L320.117 34.1692ZM316.401 32.0855C314.993 31.6054 313.489 31.0933 311.889 30.5492L311.245 32.4428C312.845 32.9867 314.348 33.4986 315.756 33.9785L316.401 32.0855ZM311.893 30.5509C309.394 29.6869 307.563 28.6031 306.33 27.3411L304.9 28.7389C306.418 30.2929 308.556 31.5131 311.24 32.4411L311.893 30.5509ZM306.338 27.3495C305.206 26.1637 304.599 24.5575 304.599 22.424H302.599C302.599 24.9625 303.335 27.1003 304.891 28.7305L306.338 27.3495ZM304.599 22.4079C304.569 20.5953 304.992 19.11 305.817 17.8993L304.165 16.7727C303.07 18.378 302.564 20.2847 302.599 22.4401L304.599 22.4079ZM305.814 17.9033C306.696 16.6229 307.894 15.633 309.435 14.935L308.61 13.113C306.76 13.951 305.269 15.1691 304.167 16.7687L305.814 17.9033ZM309.449 14.9284C310.99 14.2016 312.792 13.824 314.879 13.824V11.824C312.549 11.824 310.447 12.2464 308.596 13.1196L309.449 14.9284ZM314.879 13.824C317 13.824 318.817 14.2024 320.356 14.9284L321.209 13.1196C319.357 12.2456 317.238 11.824 314.879 11.824V13.824ZM320.363 14.9315C321.941 15.6621 323.135 16.6671 323.983 17.9387L325.647 16.8293C324.575 15.2209 323.081 13.9859 321.203 13.1165L320.363 14.9315ZM323.991 17.9513C324.86 19.2129 325.341 20.7331 325.399 22.5522L327.398 22.4878C327.329 20.3389 326.753 18.4351 325.638 16.8167L323.991 17.9513ZM326.399 21.52H319.823V23.52H326.399V21.52ZM320.822 22.493C320.783 21.0342 320.201 19.7559 319.138 18.6929L317.724 20.1071C318.453 20.8361 318.799 21.6377 318.823 22.547L320.822 22.493ZM319.163 18.7186C318.066 17.541 316.558 17.008 314.783 17.008V19.008C316.144 19.008 317.067 19.403 317.699 20.0814L319.163 18.7186ZM314.807 17.0083C313.273 16.9718 311.906 17.3579 310.77 18.2193L311.979 19.8127C312.7 19.2661 313.605 18.9802 314.759 19.0077L314.807 17.0083ZM310.775 18.216C309.582 19.1107 309.031 20.4264 309.031 21.992H311.031C311.031 20.9336 311.376 20.2653 311.975 19.816L310.775 18.216ZM309.031 21.992C309.031 23.3403 309.464 24.5137 310.396 25.4034L311.777 23.9566C311.301 23.5023 311.031 22.8837 311.031 21.992H309.031ZM310.414 25.4199C311.241 26.1717 312.325 26.773 313.621 27.2503L314.312 25.3737C313.176 24.955 312.341 24.4683 311.759 23.9401L310.414 25.4199ZM313.621 27.2503C314.851 27.7036 316.256 28.1877 317.832 28.7026L318.453 26.8014C316.894 26.2923 315.514 25.8164 314.312 25.3737L313.621 27.2503ZM317.816 28.697C319.431 29.256 320.896 29.9049 322.215 30.6412L323.19 28.8948C321.757 28.0951 320.183 27.4 318.47 26.807L317.816 28.697ZM322.215 30.6412C323.454 31.3326 324.436 32.2458 325.176 33.385L326.853 32.295C325.93 30.8742 324.703 29.7394 323.19 28.8948L322.215 30.6412ZM325.183 33.3947C325.875 34.4331 326.263 35.8388 326.263 37.688H328.263C328.263 35.5692 327.819 33.7429 326.847 32.2853L325.183 33.3947ZM326.263 37.688C326.263 39.2688 325.863 40.7239 325.06 42.0722L326.778 43.0958C327.767 41.4361 328.263 39.6272 328.263 37.688H326.263ZM325.06 42.0722C324.27 43.3975 323.088 44.4932 321.468 45.3474L322.401 47.1166C324.301 46.1148 325.775 44.7785 326.778 43.0958L325.06 42.0722ZM321.481 45.3408C319.897 46.1473 317.902 46.576 315.455 46.576V48.576C318.127 48.576 320.453 48.1087 322.388 47.1232L321.481 45.3408Z" fill="white"/>
</g>
<g filter="url(#filter1_d)">
<mask id="path-3-inside-1" fill="white">
<path d="M127.425 241.773C126.553 241.625 124.783 241.182 123.493 240.791C111.427 237.126 102.645 227.293 100.511 215.058C100.116 212.793 100.014 209.159 100.014 197.342V182.476L98.4581 182.47C96.3037 182.462 92.8206 181.68 91.1563 180.831C89.0738 179.769 86.7476 177.422 85.807 175.436C84.6798 173.055 83.8565 168.812 84.0209 166.23C84.1333 164.465 84.3033 163.982 85.1063 163.143C86.4745 161.715 88.2577 161.305 90.0773 162C91.9223 162.705 92.3392 163.567 92.5831 167.184C92.9108 172.044 94.1893 173.662 97.8883 173.897L100.014 174.033V165.461V156.89L101.454 157.733C108.976 162.142 127.687 164.91 155.959 165.795C185.915 166.734 218.371 164.011 231.721 159.439L235.003 158.316V166.172V174.028L237.443 173.905C241.489 173.7 242.751 172.197 243.089 167.184C243.333 163.567 243.75 162.705 245.595 162C247.415 161.305 249.198 161.715 250.566 163.144C251.369 163.982 251.539 164.465 251.652 166.23C251.816 168.812 250.993 173.055 249.865 175.436C247.831 179.734 242.726 182.476 236.761 182.476H235.036L234.916 199.105C234.779 218.126 234.803 217.937 231.721 224.299C227.74 232.519 221.041 238.152 211.793 241.057L208.955 241.948L168.983 241.996C146.998 242.022 128.297 241.922 127.425 241.773L127.425 241.773ZM204.399 228.36C213.282 224.332 218.438 216.326 220.493 203.37C220.982 200.282 221.073 197.699 221.05 187.555C221.019 173.912 220.868 172.622 219.101 170.855C216.045 167.798 210.192 169.225 209.464 173.205C209.337 173.902 209.421 177.341 209.652 180.849C210.428 192.659 210.15 200.521 208.769 205.905C207.259 211.784 204.559 215.542 200.304 217.685C196.636 219.532 195.315 221.64 195.825 224.828C196.138 226.786 197.214 228.33 198.767 229.048C200.382 229.795 201.549 229.652 204.399 228.36ZM156.632 161.489C128.852 160.788 107.372 157.537 102.168 153.248L100.919 152.218L101.059 148.577C101.169 145.682 101.347 144.628 101.925 143.433C102.833 141.557 104.818 139.566 106.923 138.421C111.827 135.751 122.409 133.6 134.417 132.832L137.529 132.632L136.619 133.341C135.354 134.325 134.744 135.652 134.744 137.421C134.744 140.654 136.478 142.169 140.18 142.171C146.238 142.175 151.871 139.439 157.893 133.57L159.908 131.606L171.051 131.741L182.194 131.876L184.676 134.234C187.751 137.155 189.326 138.313 192.201 139.769C196.535 141.963 202.543 142.879 204.834 141.695C205.405 141.399 206.159 140.686 206.511 140.109C207.687 138.18 207.098 134.668 205.399 133.478C204.537 132.874 204.584 132.874 210.102 133.502C221.993 134.854 229.773 137.164 233.364 140.409C235.447 142.291 236.342 144.514 236.552 148.326L236.73 151.566L235.785 152.462C233.911 154.239 230.049 155.68 223.043 157.219C213.564 159.3 196.75 160.99 182.089 161.336C177.944 161.434 172.71 161.564 170.457 161.624C168.205 161.685 161.984 161.624 156.632 161.489V161.489ZM202.815 139.891C202.452 139.466 201.846 139.224 201.147 139.224C199.247 139.224 195.052 137.971 192.662 136.689C191.174 135.891 189.019 134.205 186.563 131.915C181.047 126.775 178.168 125.57 170.594 125.235C167.005 125.076 166.018 125.14 164.532 125.629C162.05 126.447 159.564 128.108 156.696 130.866C150.363 136.955 146.038 139.212 140.551 139.29C138.239 139.323 137.522 138.742 137.844 137.098C138.127 135.654 138.583 135.361 141.391 134.824C144.813 134.169 147.228 132.81 150.733 129.565C156.396 124.324 158.348 123.068 162.82 121.789C164.999 121.166 166.157 121.059 170.621 121.068C179.12 121.085 183.139 122.394 187.986 126.725C195.015 133.005 196.603 134.004 200.864 134.826C202.18 135.079 203.542 135.44 203.89 135.626C204.844 136.137 205.039 137.432 204.322 138.489C203.987 138.983 203.639 139.651 203.549 139.972C203.397 140.517 203.346 140.511 202.815 139.89V139.891ZM140.642 115.073C139.648 114.711 138.351 113.193 138.158 112.165C138.029 111.476 138.215 110.353 138.69 108.944C139.254 107.276 139.383 106.311 139.256 104.725C139.07 102.407 138.483 101.095 135.705 96.7901C132.665 92.0787 131.75 89.8493 131.552 86.6694C131.355 83.5152 131.868 81.5171 133.63 78.5759C135.262 75.8515 136.235 75 137.713 75C139.267 75 140.842 76.4447 141.165 78.1672C141.35 79.1522 141.166 79.7653 140.031 81.9492C139.286 83.3828 138.676 84.8856 138.676 85.2888C138.676 86.9733 139.822 89.6368 141.779 92.5044C145.537 98.0087 146.54 100.716 146.54 105.362C146.54 108.75 145.305 112.984 143.911 114.378C143.016 115.273 141.865 115.518 140.642 115.073ZM165.998 114.982C165.071 114.608 163.998 113.2 163.738 112.016C163.601 111.389 163.764 110.417 164.207 109.234C165.07 106.926 165.094 104.053 164.267 101.963C163.926 101.1 162.533 98.6551 161.172 96.5291C157.816 91.2856 157.24 89.7266 157.211 85.8132C157.189 82.8823 157.257 82.5566 158.376 80.2427C159.03 78.8911 160.11 77.1585 160.777 76.3926C161.795 75.2237 162.185 75 163.202 75C164.63 75 165.685 75.6578 166.364 76.9696C167.148 78.4864 166.961 79.8058 165.663 81.9081C163.605 85.2438 164.076 87.7646 167.736 93C172.439 99.7281 173.427 105.274 171.052 111.621C169.877 114.763 168.205 115.874 165.998 114.982H165.998ZM191.391 114.813C189.504 113.787 188.948 111.93 189.782 109.438C190.746 106.554 190.858 105.566 190.428 103.739C189.936 101.647 189.173 100.097 187.168 97.1178C184.176 92.6727 182.58 88.7397 182.58 85.8132C182.58 82.9391 184.05 79.3296 186.417 76.3926C187.392 75.1822 187.707 75 188.822 75C190.712 75 192.091 76.3312 192.321 78.3779C192.474 79.7341 192.359 80.1508 191.419 81.644C190.189 83.596 189.806 86.0111 190.427 87.8933C190.64 88.5371 191.976 90.8489 193.398 93.0307C197.725 99.6714 198.762 103.783 197.44 109.057C196.053 114.596 194.213 116.347 191.391 114.813Z"/>
</mask>
<path d="M127.425 241.773C126.553 241.625 124.783 241.182 123.493 240.791C111.427 237.126 102.645 227.293 100.511 215.058C100.116 212.793 100.014 209.159 100.014 197.342V182.476L98.4581 182.47C96.3037 182.462 92.8206 181.68 91.1563 180.831C89.0738 179.769 86.7476 177.422 85.807 175.436C84.6798 173.055 83.8565 168.812 84.0209 166.23C84.1333 164.465 84.3033 163.982 85.1063 163.143C86.4745 161.715 88.2577 161.305 90.0773 162C91.9223 162.705 92.3392 163.567 92.5831 167.184C92.9108 172.044 94.1893 173.662 97.8883 173.897L100.014 174.033V165.461V156.89L101.454 157.733C108.976 162.142 127.687 164.91 155.959 165.795C185.915 166.734 218.371 164.011 231.721 159.439L235.003 158.316V166.172V174.028L237.443 173.905C241.489 173.7 242.751 172.197 243.089 167.184C243.333 163.567 243.75 162.705 245.595 162C247.415 161.305 249.198 161.715 250.566 163.144C251.369 163.982 251.539 164.465 251.652 166.23C251.816 168.812 250.993 173.055 249.865 175.436C247.831 179.734 242.726 182.476 236.761 182.476H235.036L234.916 199.105C234.779 218.126 234.803 217.937 231.721 224.299C227.74 232.519 221.041 238.152 211.793 241.057L208.955 241.948L168.983 241.996C146.998 242.022 128.297 241.922 127.425 241.773L127.425 241.773ZM204.399 228.36C213.282 224.332 218.438 216.326 220.493 203.37C220.982 200.282 221.073 197.699 221.05 187.555C221.019 173.912 220.868 172.622 219.101 170.855C216.045 167.798 210.192 169.225 209.464 173.205C209.337 173.902 209.421 177.341 209.652 180.849C210.428 192.659 210.15 200.521 208.769 205.905C207.259 211.784 204.559 215.542 200.304 217.685C196.636 219.532 195.315 221.64 195.825 224.828C196.138 226.786 197.214 228.33 198.767 229.048C200.382 229.795 201.549 229.652 204.399 228.36ZM156.632 161.489C128.852 160.788 107.372 157.537 102.168 153.248L100.919 152.218L101.059 148.577C101.169 145.682 101.347 144.628 101.925 143.433C102.833 141.557 104.818 139.566 106.923 138.421C111.827 135.751 122.409 133.6 134.417 132.832L137.529 132.632L136.619 133.341C135.354 134.325 134.744 135.652 134.744 137.421C134.744 140.654 136.478 142.169 140.18 142.171C146.238 142.175 151.871 139.439 157.893 133.57L159.908 131.606L171.051 131.741L182.194 131.876L184.676 134.234C187.751 137.155 189.326 138.313 192.201 139.769C196.535 141.963 202.543 142.879 204.834 141.695C205.405 141.399 206.159 140.686 206.511 140.109C207.687 138.18 207.098 134.668 205.399 133.478C204.537 132.874 204.584 132.874 210.102 133.502C221.993 134.854 229.773 137.164 233.364 140.409C235.447 142.291 236.342 144.514 236.552 148.326L236.73 151.566L235.785 152.462C233.911 154.239 230.049 155.68 223.043 157.219C213.564 159.3 196.75 160.99 182.089 161.336C177.944 161.434 172.71 161.564 170.457 161.624C168.205 161.685 161.984 161.624 156.632 161.489V161.489ZM202.815 139.891C202.452 139.466 201.846 139.224 201.147 139.224C199.247 139.224 195.052 137.971 192.662 136.689C191.174 135.891 189.019 134.205 186.563 131.915C181.047 126.775 178.168 125.57 170.594 125.235C167.005 125.076 166.018 125.14 164.532 125.629C162.05 126.447 159.564 128.108 156.696 130.866C150.363 136.955 146.038 139.212 140.551 139.29C138.239 139.323 137.522 138.742 137.844 137.098C138.127 135.654 138.583 135.361 141.391 134.824C144.813 134.169 147.228 132.81 150.733 129.565C156.396 124.324 158.348 123.068 162.82 121.789C164.999 121.166 166.157 121.059 170.621 121.068C179.12 121.085 183.139 122.394 187.986 126.725C195.015 133.005 196.603 134.004 200.864 134.826C202.18 135.079 203.542 135.44 203.89 135.626C204.844 136.137 205.039 137.432 204.322 138.489C203.987 138.983 203.639 139.651 203.549 139.972C203.397 140.517 203.346 140.511 202.815 139.89V139.891ZM140.642 115.073C139.648 114.711 138.351 113.193 138.158 112.165C138.029 111.476 138.215 110.353 138.69 108.944C139.254 107.276 139.383 106.311 139.256 104.725C139.07 102.407 138.483 101.095 135.705 96.7901C132.665 92.0787 131.75 89.8493 131.552 86.6694C131.355 83.5152 131.868 81.5171 133.63 78.5759C135.262 75.8515 136.235 75 137.713 75C139.267 75 140.842 76.4447 141.165 78.1672C141.35 79.1522 141.166 79.7653 140.031 81.9492C139.286 83.3828 138.676 84.8856 138.676 85.2888C138.676 86.9733 139.822 89.6368 141.779 92.5044C145.537 98.0087 146.54 100.716 146.54 105.362C146.54 108.75 145.305 112.984 143.911 114.378C143.016 115.273 141.865 115.518 140.642 115.073ZM165.998 114.982C165.071 114.608 163.998 113.2 163.738 112.016C163.601 111.389 163.764 110.417 164.207 109.234C165.07 106.926 165.094 104.053 164.267 101.963C163.926 101.1 162.533 98.6551 161.172 96.5291C157.816 91.2856 157.24 89.7266 157.211 85.8132C157.189 82.8823 157.257 82.5566 158.376 80.2427C159.03 78.8911 160.11 77.1585 160.777 76.3926C161.795 75.2237 162.185 75 163.202 75C164.63 75 165.685 75.6578 166.364 76.9696C167.148 78.4864 166.961 79.8058 165.663 81.9081C163.605 85.2438 164.076 87.7646 167.736 93C172.439 99.7281 173.427 105.274 171.052 111.621C169.877 114.763 168.205 115.874 165.998 114.982H165.998ZM191.391 114.813C189.504 113.787 188.948 111.93 189.782 109.438C190.746 106.554 190.858 105.566 190.428 103.739C189.936 101.647 189.173 100.097 187.168 97.1178C184.176 92.6727 182.58 88.7397 182.58 85.8132C182.58 82.9391 184.05 79.3296 186.417 76.3926C187.392 75.1822 187.707 75 188.822 75C190.712 75 192.091 76.3312 192.321 78.3779C192.474 79.7341 192.359 80.1508 191.419 81.644C190.189 83.596 189.806 86.0111 190.427 87.8933C190.64 88.5371 191.976 90.8489 193.398 93.0307C197.725 99.6714 198.762 103.783 197.44 109.057C196.053 114.596 194.213 116.347 191.391 114.813Z" fill="white" stroke="#4D0303" stroke-width="2" mask="url(#path-3-inside-1)"/>
</g>
<defs>
<filter id="filter0_d" x="0.248001" y="3.90399" width="332.015" height="64.816" filterUnits="userSpaceOnUse" color-interpolation-filters="sRGB">
<feFlood flood-opacity="0" result="BackgroundImageFix"/>
<feColorMatrix in="SourceAlpha" type="matrix" values="0 0 0 0 0 0 0 0 0 0 0 0 0 0 0 0 0 0 127 0"/>
<feOffset dy="4"/>
<feGaussianBlur stdDeviation="2"/>
<feColorMatrix type="matrix" values="0 0 0 0 0 0 0 0 0 0 0 0 0 0 0 0 0 0 0.25 0"/>
<feBlend mode="normal" in2="BackgroundImageFix" result="effect1_dropShadow"/>
<feBlend mode="normal" in="SourceGraphic" in2="effect1_dropShadow" result="shape"/>
</filter>
<filter id="filter1_d" x="80" y="75" width="175.672" height="175" filterUnits="userSpaceOnUse" color-interpolation-filters="sRGB">
<feFlood flood-opacity="0" result="BackgroundImageFix"/>
<feColorMatrix in="SourceAlpha" type="matrix" values="0 0 0 0 0 0 0 0 0 0 0 0 0 0 0 0 0 0 127 0"/>
<feOffset dy="4"/>
<feGaussianBlur stdDeviation="2"/>
<feColorMatrix type="matrix" values="0 0 0 0 0 0 0 0 0 0 0 0 0 0 0 0 0 0 0.25 0"/>
<feBlend mode="normal" in2="BackgroundImageFix" result="effect1_dropShadow"/>
<feBlend mode="normal" in="SourceGraphic" in2="effect1_dropShadow" result="shape"/>
</filter>
</defs>
</svg>
